<svg xmlns="http://www.w3.org/2000/svg" viewBox="0 0 649.82 232.49"><defs><style>.cls-1{isolation:isolate;}.cls-2{fill:#001b2d;}.cls-3{fill:#06e2ff;mix-blend-mode:soft-light;}</style></defs><title>Fichier 1</title><g class="cls-1"><g id="Calque_2" data-name="Calque 2"><g id="Calque_1-2" data-name="Calque 1"><path class="cls-2" d="M433.05,55.28c-13.36,0-27,2.41-37.14,18.71l-.27-1.7V58.76H363.32v132h32.32v-.26h.27V121c0-24.32,15.77-33.4,32.86-33.4,10.69,0,16.84,2.94,23.51,8.55L467,67.84C459.76,60.63,446.67,55.28,433.05,55.28Z"/><path class="cls-2" d="M576,66.32a70.67,70.67,0,1,0,0,116.58v7.57H608.3V58.76H576ZM536,164.55A39.94,39.94,0,1,1,576,124.61,39.94,39.94,0,0,1,536,164.55Z"/><path class="cls-3" d="M624.52,125.65v5.92a55.31,55.31,0,1,0,0,91.23v5.92h25.3V125.65Zm-31.25,82.79a31.26,31.26,0,1,1,31.25-31.25A31.25,31.25,0,0,1,593.27,208.44Z"/><path class="cls-2" d="M97.1,0a97.1,97.1,0,1,0,97.09,97.1A97.1,97.1,0,0,0,97.1,0Zm0,162.23A65.14,65.14,0,1,1,162.23,97.1,65.13,65.13,0,0,1,97.1,162.23Z"/><path class="cls-2" d="M308.82,126.08c0,20-13.63,36.87-33.67,36.87-20.83,0-31.79-15.23-31.79-35.27V58.76H210.77V128c0,40.88,23,64.65,54.5,64.65,18,0,30.33-6.13,43.55-18.78v16.91h32.32v-132H308.82Z"/></g></g></g></svg>